<?xml version="1.0" encoding="utf-8"?>
<!-- Generator: Adobe Illustrator 23.1.0, SVG Export Plug-In . SVG Version: 6.00 Build 0)  -->
<svg version="1.1" id="Layer_1" xmlns="http://www.w3.org/2000/svg" xmlns:xlink="http://www.w3.org/1999/xlink" x="0px" y="0px"
	 viewBox="0 0 512 512" style="enable-background:new 0 0 512 512;" xml:space="preserve">
<style type="text/css">
	.st0{stroke:#00FF00;stroke-miterlimit:10;}
	.st1{fill:#00FF00;stroke:#00FF00;stroke-miterlimit:10;}
	.st2{fill:none;stroke:#00FF00;stroke-miterlimit:10;}
	.st3{fill:#000033;stroke:#000000;stroke-miterlimit:10;}
	.st4{fill:#000033;stroke:#FFFFFF;stroke-width:5;stroke-miterlimit:10;}
</style>
<polyline class="st0" points="205.67,25.6 205.67,184.41 220.46,184.41 220.46,26.62 285.79,26.62 285.79,184.41 300.58,184.41 
	300.58,18.74 293.22,11.88 220.5,11.88 "/>
<polyline class="st0" points="300.58,462.64 300.58,278.96 285.79,278.96 285.79,461.32 220.46,461.32 220.46,278.96 205.67,278.96 
	205.67,467.24 213.77,476.05 287.97,476.05 "/>
<polygon class="st1" points="300.58,199.14 300.58,264.23 285.79,264.23 285.79,461.32 220.46,461.32 220.46,264.23 205.67,264.23 
	205.67,199.14 220.46,199.14 220.46,26.62 285.79,26.62 285.79,199.14 "/>
<rect x="220.46" y="26.62" class="st1" width="65.33" height="434.7"/>
<polyline class="st0" points="486.1,265.53 486.1,191.27 478.72,184.41 300.58,184.41 300.58,199.14 471.31,199.14 471.31,264.23 
	300.58,264.23 300.58,278.96 473.45,278.96 "/>
<polyline class="st0" points="20.17,197.23 20.17,265.64 32.41,278.96 205.67,278.96 205.67,264.23 34.96,264.23 34.96,199.14 
	205.67,199.14 205.67,184.41 34.01,184.41 "/>
<rect x="205.67" y="264.23" class="st0" width="14.79" height="14.74"/>
<rect x="285.79" y="264.23" class="st0" width="14.79" height="14.74"/>
<rect x="205.67" y="184.41" class="st0" width="14.79" height="14.74"/>
<rect x="285.79" y="184.41" class="st0" width="14.79" height="14.74"/>
<polygon class="st1" points="471.31,199.14 471.31,264.23 285.79,264.23 285.79,278.96 220.46,278.96 220.46,264.23 34.96,264.23 
	34.96,199.14 220.46,199.14 220.46,184.41 285.79,184.41 285.79,199.14 "/>
<rect x="34.96" y="199.14" class="st1" width="436.35" height="65.09"/>
<line class="st2" x1="230.23" y1="401.47" x2="224.75" y2="395.49"/>
<line class="st2" x1="486.1" y1="191.27" x2="478.72" y2="184.41"/>
<line class="st2" x1="300.58" y1="18.74" x2="293.22" y2="11.88"/>
<line class="st2" x1="486.1" y1="265.53" x2="473.45" y2="278.96"/>
<line class="st2" x1="220.5" y1="11.88" x2="205.67" y2="25.6"/>
<path class="st3" d="M491.83,66.99v96.7c0,7.55-5.16,13.66-11.51,13.66H319.19c-1.75,0-3.42-0.46-4.91-1.29
	c-3.9-2.19-6.61-6.9-6.61-12.37v-96.7c0-7.55,5.15-13.66,11.51-13.66h161.13C486.67,53.33,491.83,59.44,491.83,66.99z"/>
<path class="st4" d="M474.52,53.33c10.24,0,15.33,12.35,8.05,19.52l-48.41,47.61l-26.36,25.93c-4.46,4.39-11.63,4.39-16.09,0
	l-31.13-30.62l-43.63-42.92c-7.28-7.16-2.19-19.52,8.05-19.52H474.52z"/>
</svg>
